M48
;GenerationSoftware,Autodesk,EAGLE,8.7.0*%
;CreationDate,2018-03-19T15:57:23Z*%
FMAT,2
ICI,OFF
INCH,TZ,00.0000
T7C0.0217
T6C0.0236
T5C0.0354
T4C0.0984
T3C0.1280
T2C0.1300
%
G90
M72
T2
X1500Y1500
X10500Y17500
X1500Y17500
X10500Y1500
T3
X3750Y14500
X8250Y14500
T4
X2063Y7000
X9937Y7000
T5
X6250Y12000
X4250Y12000
X5250Y12000
X7250Y12000
X4750Y11000
X5750Y11000
X6750Y11000
X7750Y11000
T6
X813Y16813
X11500Y1500
X10500Y500
X9813Y2188
X11188Y2188
X9813Y813
X11188Y813
X10500Y18500
X9500Y17500
X11500Y17500
X10500Y16500
X9813Y18188
X11188Y18188
X9813Y16813
X11188Y16813
X10500Y2500
X1500Y2500
X500Y1500
X2500Y1500
X1500Y500
X813Y2188
X2188Y2188
X813Y813
X2188Y813
X1500Y18500
X500Y17500
X2500Y17500
X1500Y16500
X813Y18188
X2188Y18188
X2188Y16813
X9500Y1500
T7
X2375Y8750
X1000Y5875
X11500Y8875
X11500Y9375
X11000Y9875
X11000Y10375
X2500Y3500
M30