G04 EAGLE Gerber X2 export*
%TF.Part,Single*%
%TF.FileFunction,Copper,L1,Top,Mixed*%
%TF.FilePolarity,Positive*%
%TF.GenerationSoftware,Autodesk,EAGLE,8.7.0*%
%TF.CreationDate,2018-03-19T15:57:23Z*%
G75*
%MOIN*%
%FSLAX34Y34*%
%LPD*%
%AMOC8*
5,1,8,0,0,1.08239X$1,22.5*%
G01*
%ADD10R,0.051181X0.031496*%
%ADD11R,0.051181X0.055118*%
%ADD12P,0.274927X8X22.500000*%
%ADD13P,0.038352X8X22.500000*%
%ADD14R,0.035433X0.062992*%
%ADD15R,0.031496X0.031496*%
%ADD16P,0.060614X8X22.500000*%
%ADD17R,0.043307X0.055118*%
%ADD18R,0.039370X0.023622*%
%ADD19R,0.055118X0.039370*%
%ADD20R,0.037402X0.037402*%
%ADD21R,0.035433X0.051181*%
%ADD22C,0.032480*%
%ADD23C,0.032000*%
%ADD24C,0.012000*%
%ADD25C,0.020000*%
%ADD26C,0.016000*%

G36*
X11829Y151D02*
X11829Y151D01*
X11832Y151D01*
X11832Y152D01*
X11834Y152D01*
X11835Y154D01*
X11837Y155D01*
X11838Y156D01*
X11839Y157D01*
X11840Y159D01*
X11841Y161D01*
X11841Y162D01*
X11841Y163D01*
X11841Y164D01*
X11841Y165D01*
X11841Y18830D01*
X11841Y18832D01*
X11841Y18834D01*
X11840Y18835D01*
X11840Y18837D01*
X11838Y18838D01*
X11837Y18840D01*
X11836Y18841D01*
X11836Y18842D01*
X11833Y18842D01*
X11832Y18844D01*
X11830Y18844D01*
X11829Y18844D01*
X11827Y18844D01*
X165Y18844D01*
X163Y18844D01*
X161Y18844D01*
X160Y18843D01*
X159Y18843D01*
X157Y18841D01*
X155Y18840D01*
X154Y18839D01*
X153Y18838D01*
X153Y18836D01*
X151Y18834D01*
X151Y18833D01*
X151Y18832D01*
X151Y18830D01*
X151Y165D01*
X151Y163D01*
X151Y161D01*
X152Y160D01*
X152Y159D01*
X154Y157D01*
X155Y155D01*
X156Y154D01*
X157Y153D01*
X159Y153D01*
X161Y151D01*
X162Y151D01*
X163Y151D01*
X164Y151D01*
X165Y151D01*
X11827Y151D01*
X11829Y151D01*
G37*
%LPC*%
G36*
X766Y3617D02*
X766Y3617D01*
X731Y3653D01*
X731Y4097D01*
X766Y4133D01*
X1148Y4133D01*
X1149Y4133D01*
X1154Y4134D01*
X1158Y4137D01*
X1345Y4323D01*
X1348Y4329D01*
X1349Y4333D01*
X1349Y4774D01*
X1348Y4777D01*
X1348Y4779D01*
X1347Y4780D01*
X1347Y4781D01*
X1346Y4783D01*
X1345Y4784D01*
X1344Y4785D01*
X1343Y4786D01*
X1341Y4787D01*
X1339Y4788D01*
X1337Y4788D01*
X1336Y4788D01*
X1334Y4789D01*
X1228Y4789D01*
X1192Y4824D01*
X1192Y5426D01*
X1228Y5461D01*
X1711Y5461D01*
X1747Y5426D01*
X1747Y5260D01*
X1747Y5258D01*
X1747Y5256D01*
X1748Y5255D01*
X1748Y5254D01*
X1750Y5252D01*
X1751Y5250D01*
X1752Y5249D01*
X1753Y5248D01*
X1755Y5248D01*
X1757Y5246D01*
X1758Y5246D01*
X1759Y5246D01*
X1760Y5246D01*
X1761Y5246D01*
X2534Y5246D01*
X2535Y5246D01*
X2540Y5247D01*
X2544Y5250D01*
X3713Y6419D01*
X3716Y6425D01*
X3717Y6429D01*
X3717Y6712D01*
X3752Y6748D01*
X4177Y6748D01*
X4212Y6712D01*
X4212Y6288D01*
X4177Y6252D01*
X3893Y6252D01*
X3889Y6251D01*
X3887Y6251D01*
X3883Y6248D01*
X2640Y5004D01*
X1761Y5004D01*
X1759Y5004D01*
X1757Y5004D01*
X1756Y5003D01*
X1755Y5003D01*
X1753Y5001D01*
X1751Y5000D01*
X1750Y4999D01*
X1749Y4998D01*
X1749Y4996D01*
X1747Y4994D01*
X1747Y4993D01*
X1747Y4992D01*
X1747Y4991D01*
X1747Y4990D01*
X1747Y4824D01*
X1711Y4789D01*
X1604Y4789D01*
X1602Y4788D01*
X1600Y4788D01*
X1599Y4787D01*
X1598Y4787D01*
X1596Y4786D01*
X1594Y4784D01*
X1593Y4783D01*
X1592Y4781D01*
X1591Y4779D01*
X1591Y4777D01*
X1590Y4777D01*
X1590Y4776D01*
X1590Y4774D01*
X1590Y4499D01*
X1591Y4498D01*
X1590Y4497D01*
X1591Y4495D01*
X1592Y4492D01*
X1593Y4492D01*
X1593Y4491D01*
X1595Y4489D01*
X1596Y4487D01*
X1597Y4487D01*
X1598Y4486D01*
X1600Y4486D01*
X1602Y4485D01*
X1603Y4485D01*
X1604Y4485D01*
X1607Y4485D01*
X1609Y4485D01*
X1610Y4486D01*
X1611Y4486D01*
X1615Y4489D01*
X1632Y4507D01*
X1955Y4507D01*
X1956Y4507D01*
X1961Y4508D01*
X1965Y4511D01*
X2325Y4871D01*
X3069Y4871D01*
X3071Y4871D01*
X3076Y4872D01*
X3079Y4875D01*
X4325Y6121D01*
X5694Y6121D01*
X5696Y6121D01*
X5701Y6122D01*
X5704Y6125D01*
X5750Y6171D01*
X5754Y6177D01*
X5754Y6181D01*
X5754Y6288D01*
X5754Y6289D01*
X5754Y6290D01*
X5753Y6292D01*
X5753Y6294D01*
X5752Y6295D01*
X5752Y6296D01*
X5750Y6297D01*
X5748Y6299D01*
X5747Y6299D01*
X5746Y6300D01*
X5744Y6301D01*
X5742Y6302D01*
X5741Y6301D01*
X5740Y6302D01*
X5738Y6301D01*
X5736Y6301D01*
X5735Y6300D01*
X5734Y6300D01*
X5730Y6298D01*
X5722Y6290D01*
X5160Y6290D01*
X5124Y6325D01*
X5124Y6365D01*
X5124Y6367D01*
X5124Y6369D01*
X5123Y6370D01*
X5123Y6371D01*
X5121Y6373D01*
X5120Y6375D01*
X5119Y6376D01*
X5118Y6377D01*
X5116Y6377D01*
X5114Y6379D01*
X5113Y6379D01*
X5112Y6379D01*
X5111Y6379D01*
X5110Y6379D01*
X4797Y6379D01*
X4795Y6379D01*
X4793Y6379D01*
X4792Y6378D01*
X4791Y6378D01*
X4789Y6376D01*
X4787Y6375D01*
X4787Y6374D01*
X4786Y6373D01*
X4785Y6371D01*
X4784Y6369D01*
X4784Y6368D01*
X4783Y6367D01*
X4783Y6366D01*
X4783Y6365D01*
X4783Y6288D01*
X4748Y6252D01*
X4323Y6252D01*
X4288Y6288D01*
X4288Y6712D01*
X4323Y6748D01*
X4748Y6748D01*
X4783Y6712D01*
X4783Y6635D01*
X4784Y6633D01*
X4784Y6631D01*
X4784Y6630D01*
X4785Y6629D01*
X4786Y6627D01*
X4787Y6625D01*
X4788Y6624D01*
X4789Y6623D01*
X4791Y6623D01*
X4793Y6621D01*
X4795Y6621D01*
X4796Y6621D01*
X4797Y6621D01*
X5110Y6621D01*
X5112Y6621D01*
X5114Y6621D01*
X5115Y6622D01*
X5116Y6622D01*
X5118Y6624D01*
X5120Y6625D01*
X5121Y6626D01*
X5122Y6627D01*
X5122Y6629D01*
X5124Y6631D01*
X5124Y6632D01*
X5124Y6633D01*
X5124Y6634D01*
X5124Y6635D01*
X5124Y6691D01*
X5160Y6726D01*
X5722Y6726D01*
X5730Y6718D01*
X5731Y6718D01*
X5732Y6717D01*
X5734Y6716D01*
X5736Y6715D01*
X5737Y6715D01*
X5738Y6714D01*
X5740Y6714D01*
X5742Y6714D01*
X5743Y6715D01*
X5744Y6715D01*
X5746Y6716D01*
X5748Y6717D01*
X5749Y6718D01*
X5750Y6718D01*
X5751Y6720D01*
X5753Y6722D01*
X5753Y6723D01*
X5754Y6724D01*
X5754Y6728D01*
X5754Y7002D01*
X5754Y7005D01*
X5753Y7009D01*
X5750Y7012D01*
X5495Y7267D01*
X5489Y7271D01*
X5485Y7271D01*
X4454Y7271D01*
X4448Y7278D01*
X4443Y7280D01*
X4442Y7281D01*
X4438Y7282D01*
X4363Y7282D01*
X4327Y7317D01*
X4327Y7392D01*
X4325Y7399D01*
X4325Y7400D01*
X4325Y7592D01*
X4326Y7595D01*
X4327Y7600D01*
X4327Y7683D01*
X4338Y7693D01*
X4338Y7694D01*
X4339Y7695D01*
X4339Y7696D01*
X4340Y7697D01*
X4340Y7698D01*
X4341Y7699D01*
X4341Y7700D01*
X4341Y7701D01*
X4342Y7703D01*
X4342Y7704D01*
X4342Y7706D01*
X4341Y7708D01*
X4340Y7710D01*
X4339Y7711D01*
X4339Y7712D01*
X4338Y7712D01*
X4338Y7713D01*
X4196Y7855D01*
X4190Y7859D01*
X4186Y7859D01*
X3442Y7859D01*
X2609Y8692D01*
X2609Y9061D01*
X2608Y9065D01*
X2608Y9067D01*
X2605Y9071D01*
X2322Y9354D01*
X2316Y9358D01*
X2312Y9358D01*
X2159Y9358D01*
X2156Y9358D01*
X2154Y9358D01*
X2153Y9357D01*
X2152Y9357D01*
X2150Y9355D01*
X2149Y9354D01*
X2148Y9353D01*
X2147Y9352D01*
X2146Y9350D01*
X2145Y9348D01*
X2145Y9347D01*
X2145Y9346D01*
X2145Y9345D01*
X2144Y9344D01*
X2144Y9277D01*
X2109Y9241D01*
X1507Y9241D01*
X1472Y9277D01*
X1472Y9450D01*
X1471Y9451D01*
X1472Y9452D01*
X1471Y9454D01*
X1470Y9456D01*
X1469Y9457D01*
X1469Y9458D01*
X1467Y9459D01*
X1466Y9461D01*
X1465Y9462D01*
X1464Y9462D01*
X1462Y9463D01*
X1460Y9464D01*
X1459Y9464D01*
X1457Y9464D01*
X1455Y9463D01*
X1453Y9463D01*
X1452Y9463D01*
X1451Y9462D01*
X1447Y9460D01*
X1390Y9403D01*
X1282Y9295D01*
X1282Y9294D01*
X1281Y9293D01*
X1280Y9291D01*
X1279Y9289D01*
X1279Y9288D01*
X1278Y9287D01*
X1279Y9286D01*
X1278Y9285D01*
X1278Y8903D01*
X1243Y8867D01*
X641Y8867D01*
X606Y8903D01*
X606Y9347D01*
X641Y9383D01*
X1023Y9383D01*
X1024Y9383D01*
X1029Y9384D01*
X1033Y9387D01*
X1220Y9573D01*
X1221Y9575D01*
X1221Y9576D01*
X1223Y9579D01*
X1223Y9581D01*
X1224Y9582D01*
X1224Y9583D01*
X1224Y10024D01*
X1223Y10027D01*
X1223Y10029D01*
X1222Y10030D01*
X1222Y10031D01*
X1221Y10033D01*
X1220Y10034D01*
X1219Y10035D01*
X1218Y10036D01*
X1216Y10037D01*
X1214Y10038D01*
X1212Y10038D01*
X1211Y10038D01*
X1209Y10039D01*
X1103Y10039D01*
X1067Y10074D01*
X1067Y10676D01*
X1103Y10711D01*
X1586Y10711D01*
X1622Y10676D01*
X1622Y10510D01*
X1622Y10508D01*
X1622Y10506D01*
X1623Y10505D01*
X1623Y10504D01*
X1625Y10502D01*
X1626Y10500D01*
X1627Y10499D01*
X1628Y10498D01*
X1630Y10498D01*
X1632Y10496D01*
X1633Y10496D01*
X1634Y10496D01*
X1635Y10496D01*
X1636Y10496D01*
X2140Y10496D01*
X2214Y10421D01*
X3883Y8752D01*
X3889Y8748D01*
X3893Y8748D01*
X4177Y8748D01*
X4212Y8712D01*
X4212Y8288D01*
X4177Y8252D01*
X3752Y8252D01*
X3717Y8288D01*
X3717Y8571D01*
X3716Y8574D01*
X3715Y8578D01*
X3713Y8581D01*
X2044Y10250D01*
X2038Y10254D01*
X2034Y10254D01*
X1636Y10254D01*
X1634Y10254D01*
X1632Y10254D01*
X1631Y10253D01*
X1630Y10253D01*
X1628Y10251D01*
X1626Y10250D01*
X1625Y10249D01*
X1624Y10248D01*
X1624Y10246D01*
X1622Y10244D01*
X1622Y10243D01*
X1622Y10242D01*
X1622Y10241D01*
X1622Y10240D01*
X1622Y10074D01*
X1586Y10039D01*
X1479Y10039D01*
X1477Y10038D01*
X1475Y10038D01*
X1474Y10037D01*
X1473Y10037D01*
X1471Y10036D01*
X1469Y10034D01*
X1468Y10033D01*
X1467Y10031D01*
X1466Y10029D01*
X1466Y10027D01*
X1465Y10027D01*
X1465Y10026D01*
X1465Y10024D01*
X1465Y9749D01*
X1466Y9748D01*
X1465Y9747D01*
X1466Y9745D01*
X1467Y9742D01*
X1468Y9742D01*
X1468Y9741D01*
X1470Y9739D01*
X1471Y9737D01*
X1472Y9737D01*
X1473Y9736D01*
X1475Y9736D01*
X1477Y9735D01*
X1478Y9735D01*
X1479Y9735D01*
X1482Y9735D01*
X1484Y9735D01*
X1485Y9736D01*
X1486Y9736D01*
X1490Y9739D01*
X1507Y9757D01*
X2109Y9757D01*
X2144Y9721D01*
X2144Y9654D01*
X2145Y9652D01*
X2145Y9650D01*
X2146Y9649D01*
X2146Y9648D01*
X2147Y9646D01*
X2149Y9644D01*
X2150Y9643D01*
X2150Y9642D01*
X2152Y9642D01*
X2154Y9640D01*
X2156Y9640D01*
X2157Y9640D01*
X2159Y9640D01*
X2434Y9640D01*
X2891Y9183D01*
X2891Y8814D01*
X2891Y8812D01*
X2891Y8810D01*
X2892Y8809D01*
X2892Y8808D01*
X2895Y8804D01*
X3554Y8145D01*
X3560Y8141D01*
X3564Y8141D01*
X4308Y8141D01*
X4686Y7763D01*
X4686Y7732D01*
X4687Y7730D01*
X4687Y7728D01*
X4687Y7727D01*
X4688Y7726D01*
X4689Y7724D01*
X4690Y7722D01*
X4691Y7722D01*
X4692Y7721D01*
X4694Y7720D01*
X4696Y7719D01*
X4697Y7719D01*
X4698Y7718D01*
X4699Y7718D01*
X4700Y7718D01*
X4728Y7718D01*
X4729Y7717D01*
X4735Y7714D01*
X4739Y7713D01*
X5428Y7713D01*
X5429Y7713D01*
X5435Y7714D01*
X5439Y7717D01*
X5719Y7998D01*
X5720Y7999D01*
X5721Y7999D01*
X5721Y8001D01*
X5723Y8003D01*
X5723Y8004D01*
X5723Y8005D01*
X5723Y8008D01*
X5723Y8010D01*
X5723Y8011D01*
X5723Y8012D01*
X5721Y8014D01*
X5721Y8016D01*
X5720Y8017D01*
X5719Y8018D01*
X5717Y8019D01*
X5715Y8020D01*
X5714Y8021D01*
X5713Y8021D01*
X5709Y8022D01*
X5160Y8022D01*
X5124Y8058D01*
X5124Y8365D01*
X5124Y8367D01*
X5124Y8369D01*
X5123Y8370D01*
X5123Y8371D01*
X5121Y8373D01*
X5120Y8375D01*
X5119Y8376D01*
X5118Y8377D01*
X5116Y8377D01*
X5114Y8379D01*
X5113Y8379D01*
X5112Y8379D01*
X5111Y8379D01*
X5110Y8379D01*
X4797Y8379D01*
X4795Y8379D01*
X4793Y8379D01*
X4792Y8378D01*
X4791Y8378D01*
X4789Y8376D01*
X4787Y8375D01*
X4787Y8374D01*
X4786Y8373D01*
X4785Y8371D01*
X4784Y8369D01*
X4784Y8368D01*
X4783Y8367D01*
X4783Y8366D01*
X4783Y8365D01*
X4783Y8288D01*
X4748Y8252D01*
X4323Y8252D01*
X4288Y8288D01*
X4288Y8712D01*
X4323Y8748D01*
X4748Y8748D01*
X4783Y8712D01*
X4783Y8635D01*
X4784Y8633D01*
X4784Y8631D01*
X4784Y8630D01*
X4785Y8629D01*
X4786Y8627D01*
X4787Y8625D01*
X4788Y8624D01*
X4789Y8623D01*
X4791Y8623D01*
X4793Y8621D01*
X4795Y8621D01*
X4796Y8621D01*
X4797Y8621D01*
X5110Y8621D01*
X5112Y8621D01*
X5114Y8621D01*
X5115Y8622D01*
X5116Y8622D01*
X5118Y8624D01*
X5120Y8625D01*
X5121Y8626D01*
X5122Y8627D01*
X5122Y8629D01*
X5124Y8631D01*
X5124Y8632D01*
X5124Y8633D01*
X5124Y8634D01*
X5124Y8635D01*
X5124Y8659D01*
X5160Y8695D01*
X5722Y8695D01*
X5758Y8659D01*
X5758Y8071D01*
X5758Y8069D01*
X5758Y8068D01*
X5759Y8066D01*
X5759Y8064D01*
X5760Y8063D01*
X5760Y8062D01*
X5762Y8061D01*
X5763Y8059D01*
X5764Y8059D01*
X5765Y8058D01*
X5768Y8057D01*
X5770Y8056D01*
X5771Y8057D01*
X5772Y8056D01*
X5774Y8057D01*
X5776Y8057D01*
X5777Y8058D01*
X5778Y8058D01*
X5782Y8060D01*
X5882Y8161D01*
X8553Y8161D01*
X8554Y8161D01*
X8559Y8162D01*
X8563Y8165D01*
X9278Y8880D01*
X9278Y8881D01*
X9279Y8882D01*
X9280Y8884D01*
X9281Y8886D01*
X9281Y8887D01*
X9282Y8888D01*
X9281Y8890D01*
X9282Y8892D01*
X9281Y8893D01*
X9281Y8894D01*
X9280Y8896D01*
X9279Y8898D01*
X9278Y8899D01*
X9278Y8900D01*
X9276Y8901D01*
X9274Y8903D01*
X9273Y8903D01*
X9272Y8904D01*
X9268Y8904D01*
X8534Y8904D01*
X8400Y9038D01*
X6783Y10655D01*
X6777Y10659D01*
X6773Y10659D01*
X6609Y10659D01*
X6409Y10859D01*
X6409Y11141D01*
X6609Y11341D01*
X6891Y11341D01*
X7091Y11141D01*
X7091Y10977D01*
X7092Y10973D01*
X7092Y10971D01*
X7095Y10967D01*
X8712Y9350D01*
X8718Y9346D01*
X8722Y9346D01*
X9388Y9346D01*
X9390Y9346D01*
X9392Y9346D01*
X9393Y9347D01*
X9394Y9347D01*
X9396Y9349D01*
X9398Y9350D01*
X9398Y9351D01*
X9399Y9352D01*
X9400Y9354D01*
X9401Y9356D01*
X9401Y9357D01*
X9402Y9358D01*
X9402Y9359D01*
X9402Y9360D01*
X9402Y9465D01*
X9415Y9478D01*
X9418Y9484D01*
X9419Y9488D01*
X9419Y9606D01*
X9526Y9713D01*
X9530Y9719D01*
X9530Y9723D01*
X9530Y9821D01*
X9529Y9827D01*
X9526Y9831D01*
X9513Y9844D01*
X9513Y10406D01*
X9549Y10442D01*
X9576Y10442D01*
X9578Y10442D01*
X9580Y10442D01*
X9581Y10443D01*
X9582Y10443D01*
X9584Y10445D01*
X9586Y10446D01*
X9587Y10447D01*
X9588Y10448D01*
X9588Y10450D01*
X9590Y10451D01*
X9590Y10453D01*
X9590Y10454D01*
X9590Y10456D01*
X9590Y10683D01*
X9590Y10685D01*
X9590Y10687D01*
X9589Y10688D01*
X9589Y10689D01*
X9587Y10691D01*
X9586Y10693D01*
X9585Y10694D01*
X9584Y10694D01*
X9582Y10695D01*
X9580Y10696D01*
X9579Y10697D01*
X9578Y10697D01*
X9577Y10697D01*
X9576Y10697D01*
X9431Y10697D01*
X9395Y10733D01*
X9395Y11019D01*
X9431Y11055D01*
X9875Y11055D01*
X9910Y11019D01*
X9910Y10852D01*
X9911Y10849D01*
X9911Y10848D01*
X9911Y10847D01*
X9911Y10846D01*
X9912Y10845D01*
X9912Y10456D01*
X9912Y10454D01*
X9912Y10452D01*
X9913Y10451D01*
X9913Y10449D01*
X9915Y10448D01*
X9916Y10446D01*
X9917Y10445D01*
X9918Y10444D01*
X9920Y10444D01*
X9922Y10442D01*
X9923Y10442D01*
X9924Y10442D01*
X9925Y10442D01*
X9926Y10442D01*
X9953Y10442D01*
X9960Y10435D01*
X9961Y10434D01*
X9962Y10434D01*
X9964Y10433D01*
X9966Y10432D01*
X9967Y10431D01*
X9968Y10431D01*
X9970Y10431D01*
X9972Y10431D01*
X9973Y10431D01*
X9974Y10432D01*
X9976Y10433D01*
X9978Y10434D01*
X9979Y10434D01*
X9980Y10435D01*
X9981Y10437D01*
X9983Y10439D01*
X9983Y10440D01*
X9984Y10441D01*
X9984Y10445D01*
X9984Y11183D01*
X10192Y11391D01*
X10331Y11391D01*
X10333Y11391D01*
X10338Y11392D01*
X10341Y11395D01*
X10375Y11429D01*
X10819Y11429D01*
X10855Y11393D01*
X10855Y11107D01*
X10821Y11073D01*
X10820Y11071D01*
X10819Y11069D01*
X10818Y11068D01*
X10818Y11067D01*
X10818Y11065D01*
X10817Y11063D01*
X10817Y11062D01*
X10817Y11061D01*
X10818Y11059D01*
X10819Y11057D01*
X10820Y11055D01*
X10820Y11054D01*
X10821Y11053D01*
X10855Y11019D01*
X10855Y10733D01*
X10819Y10697D01*
X10375Y10697D01*
X10340Y10733D01*
X10340Y11019D01*
X10373Y11053D01*
X10375Y11055D01*
X10376Y11057D01*
X10376Y11058D01*
X10377Y11059D01*
X10377Y11061D01*
X10378Y11063D01*
X10377Y11064D01*
X10377Y11065D01*
X10377Y11067D01*
X10376Y11069D01*
X10375Y11071D01*
X10374Y11072D01*
X10373Y11073D01*
X10341Y11105D01*
X10336Y11109D01*
X10331Y11109D01*
X10314Y11109D01*
X10310Y11108D01*
X10308Y11108D01*
X10304Y11105D01*
X10270Y11071D01*
X10266Y11065D01*
X10266Y11061D01*
X10266Y8692D01*
X9058Y7484D01*
X8564Y7484D01*
X8560Y7483D01*
X8558Y7483D01*
X8554Y7480D01*
X7270Y6196D01*
X7266Y6190D01*
X7266Y6186D01*
X7266Y5317D01*
X6808Y4859D01*
X5906Y4859D01*
X5464Y5301D01*
X5459Y5305D01*
X5454Y5305D01*
X5160Y5305D01*
X5124Y5341D01*
X5124Y5706D01*
X5160Y5742D01*
X5722Y5742D01*
X5758Y5706D01*
X5758Y5412D01*
X5759Y5407D01*
X5759Y5405D01*
X5762Y5402D01*
X6019Y5145D01*
X6024Y5141D01*
X6029Y5141D01*
X6686Y5141D01*
X6687Y5141D01*
X6692Y5142D01*
X6696Y5145D01*
X6980Y5429D01*
X6984Y5435D01*
X6984Y5439D01*
X6984Y6308D01*
X8442Y7766D01*
X8936Y7766D01*
X8937Y7766D01*
X8942Y7767D01*
X8946Y7770D01*
X9980Y8804D01*
X9981Y8806D01*
X9982Y8806D01*
X9982Y8807D01*
X9984Y8810D01*
X9984Y8812D01*
X9984Y8813D01*
X9984Y8814D01*
X9984Y9513D01*
X9984Y9514D01*
X9984Y9515D01*
X9983Y9517D01*
X9983Y9519D01*
X9982Y9520D01*
X9982Y9521D01*
X9980Y9522D01*
X9978Y9524D01*
X9977Y9525D01*
X9976Y9525D01*
X9974Y9526D01*
X9972Y9527D01*
X9971Y9527D01*
X9970Y9527D01*
X9968Y9526D01*
X9966Y9526D01*
X9965Y9526D01*
X9964Y9525D01*
X9960Y9523D01*
X9882Y9445D01*
X9878Y9439D01*
X9878Y9435D01*
X9878Y8785D01*
X9842Y8749D01*
X9608Y8749D01*
X9604Y8748D01*
X9601Y8748D01*
X9597Y8745D01*
X8692Y7839D01*
X6021Y7839D01*
X6017Y7838D01*
X6015Y7838D01*
X6011Y7835D01*
X5762Y7586D01*
X5758Y7580D01*
X5758Y7577D01*
X5758Y7576D01*
X5758Y7352D01*
X5759Y7347D01*
X5759Y7346D01*
X5762Y7342D01*
X5996Y7108D01*
X5996Y6075D01*
X5800Y5879D01*
X4431Y5879D01*
X4427Y5878D01*
X4424Y5878D01*
X4421Y5875D01*
X3175Y4629D01*
X2431Y4629D01*
X2427Y4628D01*
X2424Y4628D01*
X2421Y4625D01*
X2274Y4478D01*
X2273Y4477D01*
X2272Y4476D01*
X2270Y4472D01*
X2269Y4468D01*
X2269Y4027D01*
X2234Y3991D01*
X1632Y3991D01*
X1597Y4027D01*
X1597Y4200D01*
X1596Y4201D01*
X1597Y4202D01*
X1596Y4204D01*
X1595Y4206D01*
X1594Y4207D01*
X1594Y4208D01*
X1592Y4209D01*
X1591Y4211D01*
X1590Y4212D01*
X1589Y4212D01*
X1587Y4213D01*
X1585Y4214D01*
X1584Y4214D01*
X1582Y4214D01*
X1580Y4213D01*
X1578Y4213D01*
X1577Y4213D01*
X1576Y4212D01*
X1572Y4210D01*
X1515Y4153D01*
X1407Y4045D01*
X1404Y4039D01*
X1403Y4035D01*
X1403Y3653D01*
X1368Y3617D01*
X766Y3617D01*
G37*
%LPD*%
%LPC*%
G36*
X8093Y13709D02*
X8093Y13709D01*
X7802Y13830D01*
X7580Y14052D01*
X7459Y14343D01*
X7459Y14657D01*
X7580Y14948D01*
X7802Y15170D01*
X8093Y15291D01*
X8407Y15291D01*
X8698Y15170D01*
X8920Y14948D01*
X9041Y14657D01*
X9041Y14343D01*
X8920Y14052D01*
X8698Y13830D01*
X8407Y13709D01*
X8093Y13709D01*
G37*
%LPD*%
%LPC*%
G36*
X3593Y13709D02*
X3593Y13709D01*
X3302Y13830D01*
X3080Y14052D01*
X2959Y14343D01*
X2959Y14657D01*
X3080Y14948D01*
X3302Y15170D01*
X3593Y15291D01*
X3907Y15291D01*
X4198Y15170D01*
X4420Y14948D01*
X4541Y14657D01*
X4541Y14343D01*
X4420Y14052D01*
X4198Y13830D01*
X3907Y13709D01*
X3593Y13709D01*
G37*
%LPD*%
%LPC*%
G36*
X414Y10039D02*
X414Y10039D01*
X378Y10074D01*
X378Y10676D01*
X414Y10711D01*
X506Y10711D01*
X508Y10712D01*
X513Y10713D01*
X516Y10716D01*
X942Y11141D01*
X4403Y11141D01*
X4405Y11141D01*
X4409Y11142D01*
X4413Y11145D01*
X4609Y11341D01*
X4891Y11341D01*
X5091Y11141D01*
X5091Y10859D01*
X4891Y10659D01*
X4609Y10659D01*
X4413Y10855D01*
X4407Y10859D01*
X4403Y10859D01*
X1064Y10859D01*
X1060Y10858D01*
X1058Y10858D01*
X1054Y10855D01*
X914Y10715D01*
X913Y10713D01*
X911Y10711D01*
X911Y10710D01*
X910Y10709D01*
X910Y10707D01*
X910Y10705D01*
X910Y10704D01*
X910Y10703D01*
X911Y10700D01*
X911Y10698D01*
X912Y10697D01*
X912Y10696D01*
X913Y10696D01*
X914Y10695D01*
X933Y10676D01*
X933Y10074D01*
X897Y10039D01*
X414Y10039D01*
G37*
%LPD*%
%LPC*%
G36*
X9809Y6357D02*
X9809Y6357D01*
X9573Y6455D01*
X9392Y6636D01*
X9294Y6872D01*
X9294Y7128D01*
X9392Y7364D01*
X9573Y7545D01*
X9809Y7643D01*
X10065Y7643D01*
X10301Y7545D01*
X10482Y7364D01*
X10580Y7128D01*
X10580Y6872D01*
X10482Y6636D01*
X10301Y6455D01*
X10065Y6357D01*
X9809Y6357D01*
G37*
%LPD*%
%LPC*%
G36*
X1935Y6357D02*
X1935Y6357D01*
X1699Y6455D01*
X1518Y6636D01*
X1420Y6872D01*
X1420Y7128D01*
X1518Y7364D01*
X1699Y7545D01*
X1935Y7643D01*
X2191Y7643D01*
X2427Y7545D01*
X2608Y7364D01*
X2706Y7128D01*
X2706Y6872D01*
X2608Y6636D01*
X2427Y6455D01*
X2191Y6357D01*
X1935Y6357D01*
G37*
%LPD*%
%LPC*%
G36*
X7609Y10659D02*
X7609Y10659D01*
X7409Y10859D01*
X7409Y11141D01*
X7609Y11341D01*
X7886Y11341D01*
X7887Y11341D01*
X7892Y11342D01*
X7896Y11345D01*
X9067Y12516D01*
X9489Y12516D01*
X9491Y12516D01*
X9493Y12516D01*
X9494Y12517D01*
X9495Y12517D01*
X9497Y12519D01*
X9499Y12520D01*
X9500Y12521D01*
X9501Y12522D01*
X9501Y12524D01*
X9503Y12526D01*
X9503Y12527D01*
X9503Y12528D01*
X9503Y12529D01*
X9503Y12530D01*
X9503Y12676D01*
X9539Y12711D01*
X10022Y12711D01*
X10058Y12676D01*
X10058Y12074D01*
X10022Y12039D01*
X9539Y12039D01*
X9503Y12074D01*
X9503Y12220D01*
X9503Y12222D01*
X9503Y12224D01*
X9502Y12225D01*
X9502Y12226D01*
X9500Y12228D01*
X9499Y12230D01*
X9498Y12231D01*
X9497Y12232D01*
X9495Y12232D01*
X9493Y12234D01*
X9492Y12234D01*
X9491Y12234D01*
X9490Y12234D01*
X9489Y12234D01*
X9189Y12234D01*
X9185Y12233D01*
X9183Y12233D01*
X9179Y12230D01*
X8095Y11146D01*
X8091Y11140D01*
X8091Y11136D01*
X8091Y10859D01*
X7891Y10659D01*
X7609Y10659D01*
G37*
%LPD*%
%LPC*%
G36*
X9431Y11445D02*
X9431Y11445D01*
X9395Y11481D01*
X9395Y11767D01*
X9431Y11803D01*
X9655Y11803D01*
X9656Y11803D01*
X9661Y11804D01*
X9665Y11807D01*
X9779Y11921D01*
X9854Y11996D01*
X10069Y11996D01*
X10071Y11996D01*
X10076Y11997D01*
X10079Y12000D01*
X10188Y12109D01*
X10192Y12114D01*
X10192Y12119D01*
X10192Y12676D01*
X10228Y12711D01*
X10711Y12711D01*
X10747Y12676D01*
X10747Y12074D01*
X10711Y12039D01*
X10465Y12039D01*
X10461Y12038D01*
X10459Y12037D01*
X10455Y12034D01*
X10175Y11754D01*
X9959Y11754D01*
X9955Y11753D01*
X9953Y11753D01*
X9949Y11750D01*
X9914Y11715D01*
X9911Y11709D01*
X9910Y11705D01*
X9910Y11481D01*
X9875Y11445D01*
X9431Y11445D01*
G37*
%LPD*%
%LPC*%
G36*
X539Y4789D02*
X539Y4789D01*
X503Y4824D01*
X503Y5426D01*
X539Y5461D01*
X626Y5461D01*
X628Y5462D01*
X630Y5462D01*
X631Y5463D01*
X632Y5463D01*
X634Y5464D01*
X636Y5466D01*
X637Y5467D01*
X638Y5469D01*
X639Y5471D01*
X639Y5473D01*
X640Y5473D01*
X640Y5474D01*
X640Y5476D01*
X640Y5714D01*
X773Y5847D01*
X776Y5852D01*
X777Y5857D01*
X777Y5967D01*
X908Y6098D01*
X1092Y6098D01*
X1223Y5967D01*
X1223Y5783D01*
X1092Y5652D01*
X982Y5652D01*
X978Y5651D01*
X975Y5650D01*
X972Y5648D01*
X925Y5601D01*
X922Y5596D01*
X921Y5591D01*
X921Y5476D01*
X922Y5473D01*
X922Y5471D01*
X923Y5470D01*
X923Y5469D01*
X924Y5467D01*
X925Y5466D01*
X926Y5465D01*
X927Y5464D01*
X929Y5463D01*
X931Y5462D01*
X933Y5462D01*
X934Y5462D01*
X936Y5461D01*
X1022Y5461D01*
X1058Y5426D01*
X1058Y4824D01*
X1022Y4789D01*
X539Y4789D01*
G37*
%LPD*%
%LPC*%
G36*
X5609Y10659D02*
X5609Y10659D01*
X5409Y10859D01*
X5409Y11141D01*
X5609Y11341D01*
X5891Y11341D01*
X6091Y11141D01*
X6091Y10859D01*
X5891Y10659D01*
X5609Y10659D01*
G37*
%LPD*%
%LPC*%
G36*
X5987Y8258D02*
X5987Y8258D01*
X5951Y8294D01*
X5951Y8659D01*
X5987Y8695D01*
X6549Y8695D01*
X6584Y8659D01*
X6584Y8294D01*
X6549Y8258D01*
X5987Y8258D01*
G37*
%LPD*%
%LPC*%
G36*
X5987Y5305D02*
X5987Y5305D01*
X5951Y5341D01*
X5951Y5706D01*
X5987Y5742D01*
X6549Y5742D01*
X6584Y5706D01*
X6584Y5341D01*
X6549Y5305D01*
X5987Y5305D01*
G37*
%LPD*%
D10*
X6268Y6508D03*
X6268Y5524D03*
X6268Y7492D03*
X6268Y8476D03*
X5441Y6508D03*
X5441Y5524D03*
X5441Y7492D03*
D11*
X5441Y8358D03*
D12*
X1500Y1500D03*
D13*
X1500Y2500D03*
X500Y1500D03*
X2500Y1500D03*
X1500Y500D03*
X813Y2188D03*
X2188Y2188D03*
X813Y813D03*
X2188Y813D03*
D12*
X1500Y17500D03*
D13*
X1500Y18500D03*
X500Y17500D03*
X2500Y17500D03*
X1500Y16500D03*
X813Y18188D03*
X2188Y18188D03*
X813Y16813D03*
X2188Y16813D03*
D12*
X10500Y1500D03*
D13*
X10500Y2500D03*
X9500Y1500D03*
X11500Y1500D03*
X10500Y500D03*
X9813Y2188D03*
X11188Y2188D03*
X9813Y813D03*
X11188Y813D03*
D12*
X10500Y17500D03*
D13*
X10500Y18500D03*
X9500Y17500D03*
X11500Y17500D03*
X10500Y16500D03*
X9813Y18188D03*
X11188Y18188D03*
X9813Y16813D03*
X11188Y16813D03*
D14*
X10860Y9125D03*
X9640Y9125D03*
D15*
X3955Y7500D03*
X4545Y7500D03*
D16*
X6250Y12000D03*
X5750Y11000D03*
X6750Y11000D03*
X7750Y11000D03*
X4750Y11000D03*
X7250Y12000D03*
X5250Y12000D03*
X4250Y12000D03*
D17*
X10469Y12375D03*
X9781Y12375D03*
D18*
X10597Y10876D03*
X10597Y11250D03*
X10597Y11624D03*
X9653Y11624D03*
X9653Y10876D03*
D19*
X1933Y3501D03*
X1933Y4249D03*
X1067Y3875D03*
X1808Y8751D03*
X1808Y9499D03*
X942Y9125D03*
D17*
X1469Y5125D03*
X781Y5125D03*
X1344Y10375D03*
X656Y10375D03*
D20*
X4535Y8500D03*
X3965Y8500D03*
X4535Y6500D03*
X3965Y6500D03*
D21*
X10499Y10125D03*
X9751Y10125D03*
D22*
X2375Y8750D03*
X2500Y3500D03*
X11000Y10375D03*
X11000Y9875D03*
X11500Y9375D03*
X11500Y8875D03*
D23*
X4545Y7500D02*
X4545Y7492D01*
X5441Y7492D01*
D24*
X5492Y7492D01*
D23*
X8625Y9125D02*
X6750Y11000D01*
X8625Y9125D02*
X9640Y9125D01*
X9640Y9515D01*
X9751Y9626D02*
X9751Y10125D01*
X9751Y9626D02*
X9640Y9515D01*
D25*
X9751Y10125D02*
X9751Y10778D01*
X9653Y10876D01*
X9640Y9125D02*
X9640Y9015D01*
X8625Y8000D02*
X5949Y8000D01*
X8625Y8000D02*
X9640Y9015D01*
X5492Y7543D02*
X5492Y7492D01*
X5492Y7543D02*
X5949Y8000D01*
D26*
X4545Y7705D02*
X4545Y7500D01*
X4545Y7705D02*
X4250Y8000D01*
X3500Y8000D01*
X2750Y8750D01*
X2750Y9125D01*
X2376Y9499D01*
X1808Y9499D01*
D24*
X5441Y7492D02*
X5875Y7058D01*
X5875Y6125D02*
X5750Y6000D01*
X4375Y6000D02*
X3125Y4750D01*
X2375Y4750D01*
X1933Y4308D01*
X1933Y4249D01*
X5875Y6125D02*
X5875Y7058D01*
X5750Y6000D02*
X4375Y6000D01*
D26*
X7750Y11000D02*
X9125Y12375D01*
X9781Y12375D01*
X4750Y11000D02*
X1000Y11000D01*
X625Y10625D01*
D24*
X656Y10594D01*
X656Y10375D01*
D22*
X1000Y5875D03*
D26*
X781Y5656D01*
X781Y5125D01*
D24*
X9653Y11624D02*
X9904Y11875D01*
X10125Y11875D01*
X10469Y12219D01*
X10469Y12375D01*
X2590Y5125D02*
X1469Y5125D01*
X2590Y5125D02*
X3965Y6500D01*
X1469Y4278D02*
X1067Y3875D01*
X1469Y4278D02*
X1469Y5125D01*
X942Y9125D02*
X1344Y9528D01*
X1344Y10375D01*
X2090Y10375D02*
X3965Y8500D01*
X2090Y10375D02*
X1344Y10375D01*
X4535Y8500D02*
X5441Y8500D01*
X5441Y8358D01*
X5441Y6500D02*
X4535Y6500D01*
X5441Y6500D02*
X5441Y6508D01*
D26*
X10250Y11250D02*
X10597Y11250D01*
X10250Y11250D02*
X10125Y11125D01*
X10125Y8750D01*
X9000Y7625D01*
X8500Y7625D01*
X7125Y6250D01*
X7125Y5375D01*
X6750Y5000D01*
X5965Y5000D01*
X5441Y5524D01*
M02*
