G04 EAGLE Gerber X2 export*
%TF.Part,Single*%
%TF.FileFunction,Legend,Top,1*%
%TF.FilePolarity,Positive*%
%TF.GenerationSoftware,Autodesk,EAGLE,8.7.0*%
%TF.CreationDate,2018-03-19T15:57:23Z*%
G75*
%MOIN*%
%FSLAX34Y34*%
%LPD*%
%AMOC8*
5,1,8,0,0,1.08239X$1,22.5*%
G01*
%ADD10C,0.008000*%
%ADD11C,0.006000*%
%ADD12C,0.005000*%
%ADD13C,0.022271*%
%ADD14C,0.010000*%


D10*
X3712Y17415D02*
X3712Y18035D01*
X3540Y18035D02*
X3884Y18035D01*
X4439Y17553D02*
X4437Y17531D01*
X4432Y17510D01*
X4424Y17490D01*
X4413Y17472D01*
X4399Y17455D01*
X4382Y17441D01*
X4364Y17430D01*
X4344Y17422D01*
X4323Y17417D01*
X4301Y17415D01*
X4268Y17417D01*
X4236Y17422D01*
X4204Y17432D01*
X4174Y17444D01*
X4145Y17460D01*
X4119Y17479D01*
X4094Y17501D01*
X4111Y17897D02*
X4113Y17919D01*
X4118Y17940D01*
X4126Y17960D01*
X4137Y17978D01*
X4151Y17995D01*
X4168Y18009D01*
X4186Y18020D01*
X4206Y18028D01*
X4227Y18033D01*
X4249Y18035D01*
X4277Y18034D01*
X4304Y18029D01*
X4331Y18022D01*
X4356Y18012D01*
X4381Y17999D01*
X4404Y17983D01*
X4111Y17897D02*
X4113Y17876D01*
X4117Y17856D01*
X4125Y17837D01*
X4135Y17819D01*
X4148Y17802D01*
X4163Y17788D01*
X4180Y17776D01*
X4369Y17674D02*
X4386Y17662D01*
X4401Y17648D01*
X4414Y17631D01*
X4424Y17613D01*
X4432Y17594D01*
X4436Y17574D01*
X4438Y17553D01*
X4369Y17673D02*
X4180Y17777D01*
X4711Y18035D02*
X4711Y17415D01*
X4986Y17415D01*
X5222Y17415D02*
X5394Y17415D01*
X5418Y17417D01*
X5442Y17422D01*
X5465Y17431D01*
X5487Y17442D01*
X5507Y17457D01*
X5524Y17474D01*
X5539Y17494D01*
X5550Y17516D01*
X5559Y17539D01*
X5564Y17563D01*
X5566Y17587D01*
X5564Y17611D01*
X5559Y17635D01*
X5550Y17658D01*
X5539Y17680D01*
X5524Y17700D01*
X5507Y17717D01*
X5487Y17732D01*
X5465Y17743D01*
X5442Y17752D01*
X5418Y17757D01*
X5394Y17759D01*
X5429Y18035D02*
X5222Y18035D01*
X5429Y18035D02*
X5452Y18033D01*
X5474Y18028D01*
X5495Y18018D01*
X5514Y18006D01*
X5531Y17990D01*
X5545Y17972D01*
X5555Y17952D01*
X5563Y17931D01*
X5567Y17908D01*
X5567Y17886D01*
X5563Y17863D01*
X5555Y17842D01*
X5545Y17822D01*
X5531Y17804D01*
X5514Y17788D01*
X5495Y17776D01*
X5474Y17766D01*
X5452Y17761D01*
X5429Y17759D01*
X5291Y17759D01*
X5838Y17415D02*
X6010Y17415D01*
X6034Y17417D01*
X6058Y17422D01*
X6081Y17431D01*
X6103Y17442D01*
X6123Y17457D01*
X6140Y17474D01*
X6155Y17494D01*
X6166Y17516D01*
X6175Y17539D01*
X6180Y17563D01*
X6182Y17587D01*
X6180Y17611D01*
X6175Y17635D01*
X6166Y17658D01*
X6155Y17680D01*
X6140Y17700D01*
X6123Y17717D01*
X6103Y17732D01*
X6081Y17743D01*
X6058Y17752D01*
X6034Y17757D01*
X6010Y17759D01*
X6044Y18035D02*
X5838Y18035D01*
X6044Y18035D02*
X6067Y18033D01*
X6089Y18028D01*
X6110Y18018D01*
X6129Y18006D01*
X6146Y17990D01*
X6160Y17972D01*
X6170Y17952D01*
X6178Y17931D01*
X6182Y17908D01*
X6182Y17886D01*
X6178Y17863D01*
X6170Y17842D01*
X6160Y17822D01*
X6146Y17804D01*
X6129Y17788D01*
X6110Y17776D01*
X6089Y17766D01*
X6067Y17761D01*
X6044Y17759D01*
X5906Y17759D01*
X6453Y17725D02*
X6454Y17764D01*
X6459Y17802D01*
X6466Y17840D01*
X6476Y17877D01*
X6489Y17914D01*
X6505Y17949D01*
X6513Y17967D01*
X6523Y17984D01*
X6536Y17999D01*
X6551Y18011D01*
X6568Y18022D01*
X6586Y18029D01*
X6605Y18033D01*
X6625Y18035D01*
X6645Y18033D01*
X6664Y18029D01*
X6682Y18022D01*
X6699Y18011D01*
X6714Y17999D01*
X6727Y17984D01*
X6737Y17967D01*
X6745Y17949D01*
X6761Y17914D01*
X6774Y17877D01*
X6784Y17840D01*
X6791Y17802D01*
X6796Y17764D01*
X6797Y17725D01*
X6453Y17725D02*
X6454Y17686D01*
X6459Y17648D01*
X6466Y17610D01*
X6476Y17573D01*
X6489Y17536D01*
X6505Y17501D01*
X6513Y17483D01*
X6523Y17466D01*
X6536Y17451D01*
X6551Y17439D01*
X6568Y17428D01*
X6586Y17421D01*
X6605Y17417D01*
X6625Y17415D01*
X6745Y17501D02*
X6761Y17536D01*
X6774Y17573D01*
X6784Y17610D01*
X6791Y17648D01*
X6796Y17686D01*
X6797Y17725D01*
X6745Y17501D02*
X6737Y17483D01*
X6727Y17466D01*
X6714Y17451D01*
X6699Y17439D01*
X6682Y17428D01*
X6664Y17421D01*
X6645Y17417D01*
X6625Y17415D01*
X6487Y17553D02*
X6763Y17897D01*
X7068Y17897D02*
X7241Y18035D01*
X7241Y17415D01*
X7413Y17415D02*
X7068Y17415D01*
X7820Y17415D02*
X7957Y17415D01*
X7820Y17415D02*
X7798Y17417D01*
X7777Y17422D01*
X7757Y17430D01*
X7739Y17441D01*
X7722Y17455D01*
X7708Y17472D01*
X7697Y17490D01*
X7689Y17510D01*
X7684Y17531D01*
X7682Y17553D01*
X7682Y17897D01*
X7684Y17919D01*
X7689Y17940D01*
X7697Y17960D01*
X7708Y17978D01*
X7722Y17995D01*
X7739Y18009D01*
X7757Y18020D01*
X7777Y18028D01*
X7798Y18033D01*
X7820Y18035D01*
X7957Y18035D01*
X8218Y18035D02*
X8218Y17415D01*
X8494Y17415D01*
X3510Y16428D02*
X3508Y16406D01*
X3503Y16385D01*
X3495Y16365D01*
X3484Y16347D01*
X3470Y16330D01*
X3453Y16316D01*
X3435Y16305D01*
X3415Y16297D01*
X3394Y16292D01*
X3372Y16290D01*
X3339Y16292D01*
X3307Y16297D01*
X3275Y16307D01*
X3245Y16319D01*
X3216Y16335D01*
X3190Y16354D01*
X3165Y16376D01*
X3182Y16772D02*
X3184Y16794D01*
X3189Y16815D01*
X3197Y16835D01*
X3208Y16853D01*
X3222Y16870D01*
X3239Y16884D01*
X3257Y16895D01*
X3277Y16903D01*
X3298Y16908D01*
X3320Y16910D01*
X3348Y16909D01*
X3375Y16904D01*
X3402Y16897D01*
X3427Y16887D01*
X3452Y16874D01*
X3475Y16858D01*
X3182Y16772D02*
X3184Y16751D01*
X3188Y16731D01*
X3196Y16712D01*
X3206Y16694D01*
X3219Y16677D01*
X3234Y16663D01*
X3251Y16651D01*
X3441Y16549D02*
X3458Y16537D01*
X3473Y16523D01*
X3486Y16506D01*
X3496Y16488D01*
X3504Y16469D01*
X3508Y16449D01*
X3510Y16428D01*
X3441Y16548D02*
X3251Y16652D01*
X3857Y16290D02*
X4029Y16290D01*
X3857Y16290D02*
X3839Y16292D01*
X3822Y16296D01*
X3806Y16304D01*
X3791Y16314D01*
X3778Y16327D01*
X3768Y16342D01*
X3760Y16358D01*
X3756Y16375D01*
X3754Y16393D01*
X3753Y16393D02*
X3753Y16566D01*
X3755Y16589D01*
X3760Y16611D01*
X3770Y16632D01*
X3782Y16651D01*
X3798Y16668D01*
X3816Y16682D01*
X3836Y16692D01*
X3857Y16700D01*
X3880Y16704D01*
X3902Y16704D01*
X3925Y16700D01*
X3946Y16692D01*
X3966Y16682D01*
X3984Y16668D01*
X4000Y16651D01*
X4012Y16632D01*
X4022Y16611D01*
X4027Y16589D01*
X4029Y16566D01*
X4029Y16497D01*
X3753Y16497D01*
X4307Y16290D02*
X4307Y16703D01*
X4479Y16703D01*
X4497Y16701D01*
X4514Y16697D01*
X4531Y16689D01*
X4545Y16679D01*
X4558Y16666D01*
X4568Y16652D01*
X4576Y16635D01*
X4580Y16618D01*
X4582Y16600D01*
X4583Y16600D02*
X4583Y16290D01*
X4913Y16531D02*
X5085Y16462D01*
X4913Y16531D02*
X4897Y16539D01*
X4884Y16551D01*
X4872Y16564D01*
X4864Y16580D01*
X4859Y16596D01*
X4857Y16614D01*
X4859Y16631D01*
X4864Y16648D01*
X4872Y16664D01*
X4883Y16677D01*
X4897Y16688D01*
X4913Y16697D01*
X4930Y16701D01*
X4947Y16703D01*
X4948Y16703D02*
X4979Y16701D01*
X5011Y16697D01*
X5042Y16690D01*
X5073Y16680D01*
X5103Y16669D01*
X5085Y16462D02*
X5101Y16454D01*
X5114Y16442D01*
X5126Y16429D01*
X5134Y16413D01*
X5139Y16397D01*
X5141Y16379D01*
X5139Y16362D01*
X5134Y16345D01*
X5126Y16329D01*
X5115Y16316D01*
X5101Y16305D01*
X5085Y16296D01*
X5068Y16292D01*
X5051Y16290D01*
X5012Y16292D01*
X4974Y16296D01*
X4936Y16303D01*
X4898Y16313D01*
X4861Y16324D01*
X5394Y16428D02*
X5394Y16566D01*
X5396Y16589D01*
X5401Y16611D01*
X5411Y16632D01*
X5423Y16651D01*
X5439Y16668D01*
X5457Y16682D01*
X5477Y16692D01*
X5498Y16700D01*
X5521Y16704D01*
X5543Y16704D01*
X5566Y16700D01*
X5587Y16692D01*
X5607Y16682D01*
X5625Y16668D01*
X5641Y16651D01*
X5653Y16632D01*
X5663Y16611D01*
X5668Y16589D01*
X5670Y16566D01*
X5670Y16428D01*
X5668Y16405D01*
X5663Y16383D01*
X5653Y16362D01*
X5641Y16343D01*
X5625Y16326D01*
X5607Y16312D01*
X5587Y16302D01*
X5566Y16294D01*
X5543Y16290D01*
X5521Y16290D01*
X5498Y16294D01*
X5477Y16302D01*
X5457Y16312D01*
X5439Y16326D01*
X5423Y16343D01*
X5411Y16362D01*
X5401Y16383D01*
X5396Y16405D01*
X5394Y16428D01*
X5952Y16290D02*
X5952Y16703D01*
X6159Y16703D01*
X6159Y16634D01*
X6714Y16910D02*
X6714Y16290D01*
X6714Y16634D02*
X7058Y16634D01*
X7058Y16910D02*
X7058Y16290D01*
X7446Y16290D02*
X7619Y16290D01*
X7446Y16290D02*
X7428Y16292D01*
X7411Y16296D01*
X7395Y16304D01*
X7380Y16314D01*
X7367Y16327D01*
X7357Y16342D01*
X7349Y16358D01*
X7345Y16375D01*
X7343Y16393D01*
X7343Y16566D01*
X7345Y16589D01*
X7350Y16611D01*
X7360Y16632D01*
X7372Y16651D01*
X7388Y16668D01*
X7406Y16682D01*
X7426Y16692D01*
X7447Y16700D01*
X7470Y16704D01*
X7492Y16704D01*
X7515Y16700D01*
X7536Y16692D01*
X7556Y16682D01*
X7574Y16668D01*
X7590Y16651D01*
X7602Y16632D01*
X7612Y16611D01*
X7617Y16589D01*
X7619Y16566D01*
X7619Y16497D01*
X7343Y16497D01*
X7994Y16531D02*
X8149Y16531D01*
X7994Y16532D02*
X7973Y16530D01*
X7953Y16525D01*
X7934Y16516D01*
X7916Y16504D01*
X7901Y16489D01*
X7889Y16472D01*
X7880Y16452D01*
X7875Y16432D01*
X7873Y16411D01*
X7875Y16390D01*
X7880Y16370D01*
X7889Y16351D01*
X7901Y16333D01*
X7916Y16318D01*
X7934Y16306D01*
X7953Y16297D01*
X7973Y16292D01*
X7994Y16290D01*
X8149Y16290D01*
X8149Y16600D01*
X8148Y16600D02*
X8146Y16618D01*
X8142Y16635D01*
X8134Y16652D01*
X8124Y16666D01*
X8111Y16679D01*
X8097Y16689D01*
X8080Y16697D01*
X8063Y16701D01*
X8045Y16703D01*
X7907Y16703D01*
X8702Y16910D02*
X8702Y16290D01*
X8530Y16290D01*
X8512Y16292D01*
X8495Y16296D01*
X8479Y16304D01*
X8464Y16314D01*
X8451Y16327D01*
X8441Y16342D01*
X8433Y16358D01*
X8429Y16375D01*
X8427Y16393D01*
X8427Y16600D01*
X8429Y16618D01*
X8433Y16635D01*
X8441Y16652D01*
X8451Y16666D01*
X8464Y16679D01*
X8479Y16689D01*
X8495Y16697D01*
X8512Y16701D01*
X8530Y16703D01*
X8702Y16703D01*
D11*
X4277Y15405D02*
X4155Y15405D01*
X4277Y15405D02*
X4298Y15407D01*
X4319Y15412D01*
X4338Y15421D01*
X4355Y15434D01*
X4370Y15449D01*
X4383Y15466D01*
X4392Y15485D01*
X4397Y15506D01*
X4399Y15527D01*
X4397Y15548D01*
X4392Y15569D01*
X4383Y15588D01*
X4370Y15605D01*
X4355Y15620D01*
X4338Y15633D01*
X4319Y15642D01*
X4298Y15647D01*
X4277Y15649D01*
X4302Y15845D02*
X4155Y15845D01*
X4302Y15845D02*
X4320Y15843D01*
X4337Y15838D01*
X4354Y15830D01*
X4368Y15819D01*
X4380Y15806D01*
X4390Y15791D01*
X4396Y15774D01*
X4400Y15756D01*
X4400Y15738D01*
X4396Y15720D01*
X4390Y15703D01*
X4380Y15688D01*
X4368Y15675D01*
X4354Y15664D01*
X4337Y15656D01*
X4320Y15651D01*
X4302Y15649D01*
X4204Y15649D01*
X4584Y15356D02*
X4780Y15894D01*
X4965Y15747D02*
X5087Y15845D01*
X5087Y15405D01*
X4965Y15405D02*
X5209Y15405D01*
X5513Y15601D02*
X5659Y15601D01*
X5513Y15600D02*
X5496Y15601D01*
X5479Y15606D01*
X5464Y15613D01*
X5450Y15623D01*
X5438Y15635D01*
X5428Y15649D01*
X5421Y15664D01*
X5416Y15681D01*
X5415Y15698D01*
X5415Y15723D01*
X5417Y15744D01*
X5422Y15765D01*
X5431Y15784D01*
X5444Y15801D01*
X5459Y15816D01*
X5476Y15829D01*
X5495Y15838D01*
X5516Y15843D01*
X5537Y15845D01*
X5558Y15843D01*
X5579Y15838D01*
X5598Y15829D01*
X5615Y15816D01*
X5630Y15801D01*
X5643Y15784D01*
X5652Y15765D01*
X5657Y15744D01*
X5659Y15723D01*
X5659Y15601D01*
X5660Y15601D02*
X5658Y15575D01*
X5653Y15550D01*
X5645Y15526D01*
X5634Y15503D01*
X5619Y15482D01*
X5603Y15462D01*
X5583Y15446D01*
X5562Y15431D01*
X5539Y15420D01*
X5515Y15412D01*
X5490Y15407D01*
X5464Y15405D01*
X5844Y15356D02*
X6040Y15894D01*
X6359Y15845D02*
X6378Y15843D01*
X6397Y15838D01*
X6414Y15830D01*
X6430Y15819D01*
X6443Y15806D01*
X6454Y15790D01*
X6462Y15773D01*
X6467Y15754D01*
X6469Y15735D01*
X6359Y15845D02*
X6337Y15843D01*
X6315Y15838D01*
X6295Y15830D01*
X6276Y15818D01*
X6259Y15804D01*
X6245Y15787D01*
X6233Y15768D01*
X6225Y15747D01*
X6432Y15650D02*
X6445Y15664D01*
X6455Y15680D01*
X6463Y15697D01*
X6467Y15716D01*
X6469Y15735D01*
X6433Y15649D02*
X6225Y15405D01*
X6469Y15405D01*
X6675Y15625D02*
X6676Y15658D01*
X6681Y15691D01*
X6688Y15723D01*
X6699Y15754D01*
X6712Y15784D01*
X6720Y15801D01*
X6731Y15816D01*
X6745Y15828D01*
X6761Y15837D01*
X6779Y15843D01*
X6797Y15845D01*
X6815Y15843D01*
X6833Y15837D01*
X6849Y15828D01*
X6863Y15816D01*
X6874Y15801D01*
X6882Y15784D01*
X6883Y15784D02*
X6896Y15754D01*
X6907Y15723D01*
X6914Y15691D01*
X6919Y15658D01*
X6920Y15625D01*
X6675Y15625D02*
X6676Y15592D01*
X6681Y15560D01*
X6688Y15527D01*
X6699Y15496D01*
X6712Y15466D01*
X6720Y15449D01*
X6731Y15434D01*
X6745Y15422D01*
X6761Y15413D01*
X6779Y15407D01*
X6797Y15405D01*
X6883Y15466D02*
X6896Y15496D01*
X6907Y15527D01*
X6914Y15559D01*
X6919Y15592D01*
X6920Y15625D01*
X6882Y15466D02*
X6874Y15449D01*
X6863Y15434D01*
X6849Y15422D01*
X6833Y15413D01*
X6815Y15407D01*
X6797Y15405D01*
X6699Y15503D02*
X6895Y15747D01*
X7125Y15747D02*
X7247Y15845D01*
X7247Y15405D01*
X7125Y15405D02*
X7369Y15405D01*
X7575Y15527D02*
X7577Y15548D01*
X7582Y15569D01*
X7591Y15588D01*
X7604Y15605D01*
X7619Y15620D01*
X7636Y15633D01*
X7655Y15642D01*
X7676Y15647D01*
X7697Y15649D01*
X7718Y15647D01*
X7739Y15642D01*
X7758Y15633D01*
X7775Y15620D01*
X7790Y15605D01*
X7803Y15588D01*
X7812Y15569D01*
X7817Y15548D01*
X7819Y15527D01*
X7817Y15506D01*
X7812Y15485D01*
X7803Y15466D01*
X7790Y15449D01*
X7775Y15434D01*
X7758Y15421D01*
X7739Y15412D01*
X7718Y15407D01*
X7697Y15405D01*
X7676Y15407D01*
X7655Y15412D01*
X7636Y15421D01*
X7619Y15434D01*
X7604Y15449D01*
X7591Y15466D01*
X7582Y15485D01*
X7577Y15506D01*
X7575Y15527D01*
X7599Y15747D02*
X7601Y15765D01*
X7606Y15782D01*
X7614Y15799D01*
X7625Y15813D01*
X7638Y15825D01*
X7653Y15835D01*
X7670Y15841D01*
X7688Y15845D01*
X7706Y15845D01*
X7724Y15841D01*
X7741Y15835D01*
X7756Y15825D01*
X7769Y15813D01*
X7780Y15799D01*
X7788Y15782D01*
X7793Y15765D01*
X7795Y15747D01*
X7793Y15729D01*
X7788Y15712D01*
X7780Y15695D01*
X7769Y15681D01*
X7756Y15669D01*
X7741Y15659D01*
X7724Y15653D01*
X7706Y15649D01*
X7688Y15649D01*
X7670Y15653D01*
X7653Y15659D01*
X7638Y15669D01*
X7625Y15681D01*
X7614Y15695D01*
X7606Y15712D01*
X7601Y15729D01*
X7599Y15747D01*
X5527Y14720D02*
X5527Y14280D01*
X5405Y14720D02*
X5649Y14720D01*
X5921Y14280D02*
X6019Y14280D01*
X5921Y14280D02*
X5904Y14281D01*
X5887Y14286D01*
X5872Y14293D01*
X5858Y14303D01*
X5846Y14315D01*
X5836Y14329D01*
X5829Y14344D01*
X5824Y14361D01*
X5823Y14378D01*
X5823Y14622D01*
X5825Y14641D01*
X5830Y14660D01*
X5840Y14676D01*
X5852Y14691D01*
X5867Y14703D01*
X5883Y14713D01*
X5902Y14718D01*
X5921Y14720D01*
X6019Y14720D01*
X6176Y14720D02*
X6322Y14512D01*
X6469Y14720D01*
X6322Y14512D02*
X6322Y14280D01*
D12*
X6445Y8850D02*
X5264Y8850D01*
X6445Y8850D02*
X6445Y8693D01*
X6445Y8260D02*
X6445Y7709D01*
X6445Y7276D02*
X6445Y6724D01*
X6445Y6291D02*
X6445Y5740D01*
X6445Y5307D02*
X6445Y5150D01*
X5264Y5150D01*
X5264Y5307D01*
X5264Y5740D02*
X5264Y6291D01*
X5264Y6724D02*
X5264Y7276D01*
X5264Y7709D02*
X5264Y8024D01*
X5264Y8693D02*
X5264Y8850D01*
X6000Y8688D02*
X6000Y5312D01*
D13*
X5067Y8890D03*
D14*
X3047Y9953D02*
X8953Y9953D01*
X8953Y4047D01*
X3047Y4047D01*
X3047Y9953D01*
X390Y7000D02*
X392Y7149D01*
X398Y7299D01*
X408Y7448D01*
X422Y7596D01*
X440Y7745D01*
X461Y7892D01*
X487Y8039D01*
X517Y8186D01*
X550Y8331D01*
X588Y8476D01*
X629Y8620D01*
X674Y8762D01*
X723Y8903D01*
X775Y9043D01*
X831Y9181D01*
X891Y9318D01*
X955Y9453D01*
X1022Y9587D01*
X1093Y9718D01*
X1167Y9848D01*
X1244Y9976D01*
X1325Y10101D01*
X1409Y10225D01*
X1497Y10346D01*
X1587Y10464D01*
X1681Y10581D01*
X1778Y10694D01*
X1878Y10805D01*
X1981Y10914D01*
X2086Y11019D01*
X2195Y11122D01*
X2306Y11222D01*
X2419Y11319D01*
X2536Y11413D01*
X2654Y11503D01*
X2775Y11591D01*
X2899Y11675D01*
X3024Y11756D01*
X3152Y11833D01*
X3282Y11907D01*
X3413Y11978D01*
X3547Y12045D01*
X3682Y12109D01*
X3819Y12169D01*
X3957Y12225D01*
X4097Y12277D01*
X4238Y12326D01*
X4380Y12371D01*
X4524Y12412D01*
X4669Y12450D01*
X4814Y12483D01*
X4961Y12513D01*
X5108Y12539D01*
X5255Y12560D01*
X5404Y12578D01*
X5552Y12592D01*
X5701Y12602D01*
X5851Y12608D01*
X6000Y12610D01*
X6149Y12608D01*
X6299Y12602D01*
X6448Y12592D01*
X6596Y12578D01*
X6745Y12560D01*
X6892Y12539D01*
X7039Y12513D01*
X7186Y12483D01*
X7331Y12450D01*
X7476Y12412D01*
X7620Y12371D01*
X7762Y12326D01*
X7903Y12277D01*
X8043Y12225D01*
X8181Y12169D01*
X8318Y12109D01*
X8453Y12045D01*
X8587Y11978D01*
X8718Y11907D01*
X8848Y11833D01*
X8976Y11756D01*
X9101Y11675D01*
X9225Y11591D01*
X9346Y11503D01*
X9464Y11413D01*
X9581Y11319D01*
X9694Y11222D01*
X9805Y11122D01*
X9914Y11019D01*
X10019Y10914D01*
X10122Y10805D01*
X10222Y10694D01*
X10319Y10581D01*
X10413Y10464D01*
X10503Y10346D01*
X10591Y10225D01*
X10675Y10101D01*
X10756Y9976D01*
X10833Y9848D01*
X10907Y9718D01*
X10978Y9587D01*
X11045Y9453D01*
X11109Y9318D01*
X11169Y9181D01*
X11225Y9043D01*
X11277Y8903D01*
X11326Y8762D01*
X11371Y8620D01*
X11412Y8476D01*
X11450Y8331D01*
X11483Y8186D01*
X11513Y8039D01*
X11539Y7892D01*
X11560Y7745D01*
X11578Y7596D01*
X11592Y7448D01*
X11602Y7299D01*
X11608Y7149D01*
X11610Y7000D01*
X11608Y6851D01*
X11602Y6701D01*
X11592Y6552D01*
X11578Y6404D01*
X11560Y6255D01*
X11539Y6108D01*
X11513Y5961D01*
X11483Y5814D01*
X11450Y5669D01*
X11412Y5524D01*
X11371Y5380D01*
X11326Y5238D01*
X11277Y5097D01*
X11225Y4957D01*
X11169Y4819D01*
X11109Y4682D01*
X11045Y4547D01*
X10978Y4413D01*
X10907Y4282D01*
X10833Y4152D01*
X10756Y4024D01*
X10675Y3899D01*
X10591Y3775D01*
X10503Y3654D01*
X10413Y3536D01*
X10319Y3419D01*
X10222Y3306D01*
X10122Y3195D01*
X10019Y3086D01*
X9914Y2981D01*
X9805Y2878D01*
X9694Y2778D01*
X9581Y2681D01*
X9464Y2587D01*
X9346Y2497D01*
X9225Y2409D01*
X9101Y2325D01*
X8976Y2244D01*
X8848Y2167D01*
X8718Y2093D01*
X8587Y2022D01*
X8453Y1955D01*
X8318Y1891D01*
X8181Y1831D01*
X8043Y1775D01*
X7903Y1723D01*
X7762Y1674D01*
X7620Y1629D01*
X7476Y1588D01*
X7331Y1550D01*
X7186Y1517D01*
X7039Y1487D01*
X6892Y1461D01*
X6745Y1440D01*
X6596Y1422D01*
X6448Y1408D01*
X6299Y1398D01*
X6149Y1392D01*
X6000Y1390D01*
X5851Y1392D01*
X5701Y1398D01*
X5552Y1408D01*
X5404Y1422D01*
X5255Y1440D01*
X5108Y1461D01*
X4961Y1487D01*
X4814Y1517D01*
X4669Y1550D01*
X4524Y1588D01*
X4380Y1629D01*
X4238Y1674D01*
X4097Y1723D01*
X3957Y1775D01*
X3819Y1831D01*
X3682Y1891D01*
X3547Y1955D01*
X3413Y2022D01*
X3282Y2093D01*
X3152Y2167D01*
X3024Y2244D01*
X2899Y2325D01*
X2775Y2409D01*
X2654Y2497D01*
X2536Y2587D01*
X2419Y2681D01*
X2306Y2778D01*
X2195Y2878D01*
X2086Y2981D01*
X1981Y3086D01*
X1878Y3195D01*
X1778Y3306D01*
X1681Y3419D01*
X1587Y3536D01*
X1497Y3654D01*
X1409Y3775D01*
X1325Y3899D01*
X1244Y4024D01*
X1167Y4152D01*
X1093Y4282D01*
X1022Y4413D01*
X955Y4547D01*
X891Y4682D01*
X831Y4819D01*
X775Y4957D01*
X723Y5097D01*
X674Y5238D01*
X629Y5380D01*
X588Y5524D01*
X550Y5669D01*
X517Y5814D01*
X487Y5961D01*
X461Y6108D01*
X440Y6255D01*
X422Y6404D01*
X408Y6552D01*
X398Y6701D01*
X392Y6851D01*
X390Y7000D01*
D12*
X6000Y7394D02*
X6000Y6606D01*
X5606Y7000D02*
X6394Y7000D01*
X3047Y7984D02*
X2063Y7984D01*
X8953Y7984D02*
X9937Y7984D01*
X9937Y6016D02*
X10134Y6016D01*
X9937Y6016D02*
X8953Y6016D01*
X3047Y6016D02*
X2063Y6016D01*
X2001Y6018D01*
X1940Y6024D01*
X1879Y6033D01*
X1818Y6047D01*
X1759Y6064D01*
X1701Y6085D01*
X1644Y6110D01*
X1589Y6138D01*
X1536Y6169D01*
X1485Y6204D01*
X1436Y6242D01*
X1389Y6283D01*
X1346Y6326D01*
X1305Y6373D01*
X1267Y6422D01*
X1232Y6473D01*
X1201Y6526D01*
X1173Y6581D01*
X1148Y6638D01*
X1127Y6696D01*
X1110Y6755D01*
X1096Y6816D01*
X1087Y6877D01*
X1081Y6938D01*
X1079Y7000D01*
X1081Y7062D01*
X1087Y7123D01*
X1096Y7184D01*
X1110Y7245D01*
X1127Y7304D01*
X1148Y7362D01*
X1173Y7419D01*
X1201Y7474D01*
X1232Y7527D01*
X1267Y7578D01*
X1305Y7627D01*
X1346Y7674D01*
X1389Y7717D01*
X1436Y7758D01*
X1485Y7796D01*
X1536Y7831D01*
X1589Y7862D01*
X1644Y7890D01*
X1701Y7915D01*
X1759Y7936D01*
X1818Y7953D01*
X1879Y7967D01*
X1940Y7976D01*
X2001Y7982D01*
X2063Y7984D01*
X9937Y7984D02*
X9999Y7982D01*
X10060Y7976D01*
X10121Y7967D01*
X10182Y7953D01*
X10241Y7936D01*
X10299Y7915D01*
X10356Y7890D01*
X10411Y7862D01*
X10464Y7831D01*
X10515Y7796D01*
X10564Y7758D01*
X10611Y7717D01*
X10654Y7674D01*
X10695Y7627D01*
X10733Y7578D01*
X10768Y7527D01*
X10799Y7474D01*
X10827Y7419D01*
X10852Y7362D01*
X10873Y7304D01*
X10890Y7245D01*
X10904Y7184D01*
X10913Y7123D01*
X10919Y7062D01*
X10921Y7000D01*
X10919Y6938D01*
X10913Y6877D01*
X10904Y6816D01*
X10890Y6755D01*
X10873Y6696D01*
X10852Y6638D01*
X10827Y6581D01*
X10799Y6526D01*
X10768Y6473D01*
X10733Y6422D01*
X10695Y6373D01*
X10654Y6326D01*
X10611Y6283D01*
X10564Y6242D01*
X10515Y6204D01*
X10464Y6169D01*
X10411Y6138D01*
X10356Y6110D01*
X10299Y6085D01*
X10241Y6064D01*
X10182Y6047D01*
X10121Y6033D01*
X10060Y6024D01*
X9999Y6018D01*
X9937Y6016D01*
X9374Y8682D02*
X11126Y8682D01*
X9374Y8682D02*
X9374Y9568D01*
X11126Y9568D01*
X11126Y8682D01*
X4791Y7776D02*
X3709Y7776D01*
X4791Y7776D02*
X4791Y7224D01*
X3709Y7224D01*
X3709Y7776D01*
X9495Y12021D02*
X10755Y12021D01*
X9495Y12021D02*
X9495Y12729D01*
X10755Y12729D01*
X10755Y12021D01*
X9810Y11447D02*
X9810Y11053D01*
X9810Y11801D02*
X9810Y11821D01*
X10440Y11821D01*
X10440Y11801D01*
X10440Y10699D02*
X10440Y10679D01*
X9810Y10679D01*
X9810Y10699D01*
X1244Y3599D02*
X1244Y3284D01*
X1598Y3284D01*
X1244Y4151D02*
X1244Y4466D01*
X1598Y4466D01*
X1756Y3993D02*
X1756Y3757D01*
X1119Y8534D02*
X1119Y8849D01*
X1119Y8534D02*
X1473Y8534D01*
X1119Y9401D02*
X1119Y9716D01*
X1473Y9716D01*
X1631Y9243D02*
X1631Y9007D01*
X1755Y4771D02*
X495Y4771D01*
X495Y5479D01*
X1755Y5479D01*
X1755Y4771D01*
X1630Y10021D02*
X370Y10021D01*
X370Y10729D01*
X1630Y10729D01*
X1630Y10021D01*
X3699Y8224D02*
X4801Y8224D01*
X3699Y8224D02*
X3699Y8776D01*
X4801Y8776D01*
X4801Y8224D01*
X4801Y6224D02*
X3699Y6224D01*
X3699Y6776D01*
X4801Y6776D01*
X4801Y6224D01*
X10717Y9761D02*
X10717Y10489D01*
X9533Y10489D01*
X9533Y9761D01*
X10717Y9761D01*
M02*
